<svg width="1019.6901611328125px" height="164px" xmlns="http://www.w3.org/2000/svg" viewBox="-259.84508056640624 -7 1019.6901611328125 164" style="background: rgba(0, 0, 0, 0);" preserveAspectRatio="xMidYMid"><defs><filter id="editing-metal-beveled"><feGaussianBlur stdDeviation="4" in="SourceAlpha" result="blur"></feGaussianBlur><feSpecularLighting surfaceScale="5" specularConstant="0.8" specularExponent="7.5" lighting-color="#fff" in="blur" result="specular"><fePointLight x="-250" y="-50" z="300"></fePointLight></feSpecularLighting><feComposite operator="in" in="specular" in2="SourceAlpha" result="comp"></feComposite><feComposite in="SourceGraphic" in2="comp" operator="arithmetic" k1="0" k2="1" k3="1" k4="0"></feComposite></filter></defs><g filter="url(#editing-metal-beveled)"><g transform="translate(-117.68500185012817, 117.31500434875488)"><path d="M8.83-44.32L8.83-44.32L8.83-44.32Q5.73-46.68 5.73-51.73L5.73-51.73L5.73-51.73Q5.73-56.78 9.05-59.42L9.05-59.42L9.05-59.42Q12.38-62.06 18.11-62.06L18.11-62.06L18.11-62.06Q21.75-62.06 30.39-60.79L30.39-60.79L36.58-59.88L36.58-59.88Q39.68-59.51 42.91-59.51L42.91-59.51L42.91-59.51Q46.14-59.51 48.32-60.88L48.32-60.88L48.32-60.88Q51.60-57.97 51.60-53.78L51.60-53.78L51.60-53.78Q51.60-49.59 47.87-46.59L47.87-46.59L47.87-46.59Q44.04-43.41 39.13-43.41L39.13-43.41L39.13-43.41Q36.76-43.41 32.94-44.04L32.94-44.04L32.94-44.04Q28.48-30.03 28.48-20.29L28.48-20.29L28.48-20.29Q28.48-10.56 33.40-5.46L33.40-5.46L33.40-5.46Q31.12-1.36 27.75 0.23L27.75 0.23L27.75 0.23Q24.39 1.82 19.34 1.82L19.34 1.82L19.34 1.82Q14.29 1.82 11.15-0.96L11.15-0.96L11.15-0.96Q8.01-3.73 8.01-9.46L8.01-9.46L8.01-9.46Q8.01-16.11 11.65-27.03L11.65-27.03L11.65-27.03Q15.29-37.86 20.75-46.14L20.75-46.14L20.75-46.14Q18.11-46.41 15.38-46.41L15.38-46.41L15.38-46.41Q9.74-46.41 8.83-44.32ZM70.53-5.00L70.53-5.00L70.53-5.00Q67.70 1.82 58.70 1.82L58.70 1.82L58.70 1.82Q54.05 1.82 51.14-1.36L51.14-1.36L51.14-1.36Q48.68-4.19 48.68-7.01L48.68-7.01L48.68-7.01Q48.68-14.38 52.05-28.76L52.05-28.76L55.42-46.41L73.89-48.23L68.34-19.47L68.34-19.47Q66.79-12.74 66.79-10.37L66.79-10.37L66.79-10.37Q66.79-5.19 70.53-5.00ZM57.06-59.06L57.06-59.06L57.06-59.06Q57.06-62.61 60.01-64.52L60.01-64.52L60.01-64.52Q62.97-66.43 67.25-66.43L67.25-66.43L67.25-66.43Q71.53-66.43 74.12-64.52L74.12-64.52L74.12-64.52Q76.71-62.61 76.71-59.06L76.71-59.06L76.71-59.06Q76.71-55.51 73.85-53.69L73.85-53.69L73.85-53.69Q70.98-51.87 66.70-51.87L66.70-51.87L66.70-51.87Q62.43-51.87 59.74-53.69L59.74-53.69L59.74-53.69Q57.06-55.51 57.06-59.06ZM143.78 1.82L143.78 1.82L143.78 1.82Q132.77 1.82 132.77-6.73L132.77-6.73L132.77-6.73Q132.77-10.46 134.36-17.70L134.36-17.70L134.36-17.70Q135.95-24.93 136.50-27.85L136.50-27.85L136.50-27.85Q137.77-34.49 137.77-36.58L137.77-36.58L137.77-36.58Q137.77-41.22 134.32-41.22L134.32-41.22L134.32-41.22Q132.04-41.22 129.86-38.08L129.86-38.08L129.86-38.08Q127.67-34.94 126.67-28.66L126.67-28.66L121.03 0L103.28 1.82L108.20-22.93L108.20-22.93Q109.02-27.03 109.75-31.67L109.75-31.67L109.75-31.67Q110.47-36.31 110.47-37.04L110.47-37.04L110.47-37.04Q110.47-41.22 107.38-41.22L107.38-41.22L107.38-41.22Q105.29-41.22 103.01-38.13L103.01-38.13L103.01-38.13Q100.74-35.03 99.46-28.66L99.46-28.66L93.91 0L75.98 1.82L85.54-46.41L100.37-48.23L98.83-39.04L98.83-39.04Q101.19-43.95 105.56-46.09L105.56-46.09L105.56-46.09Q109.93-48.23 116.75-48.23L116.75-48.23L116.75-48.23Q120.67-48.23 123.21-46.32L123.21-46.32L123.21-46.32Q125.76-44.41 126.58-41.31L126.58-41.31L126.58-41.31Q128.13-44.50 132.09-46.36L132.09-46.36L132.09-46.36Q136.04-48.23 140.91-48.23L140.91-48.23L140.91-48.23Q145.78-48.23 148.19-47.18L148.19-47.18L148.19-47.18Q150.60-46.14 152.06-44.41L152.06-44.41L152.06-44.41Q154.52-41.22 154.52-35.40L154.52-35.40L154.52-35.40Q154.52-29.67 152.06-17.75L152.06-17.75L152.06-17.75Q150.79-11.92 150.79-9.78L150.79-9.78L150.79-9.78Q150.79-7.64 152.02-6.37L152.02-6.37L152.02-6.37Q153.24-5.10 155.06-4.91L155.06-4.91L155.06-4.91Q154.15-1.82 151.01 0L151.01 0L151.01 0Q147.88 1.82 143.78 1.82ZM198.93-15.38L198.93-15.38L198.93-15.38Q201.20-13.83 201.20-10.42L201.20-10.42L201.20-10.42Q201.20-7.01 199.47-4.82L199.47-4.82L199.47-4.82Q197.74-2.64 194.92-1.18L194.92-1.18L194.92-1.18Q189.10 1.82 182.82 1.82L182.82 1.82L182.82 1.82Q176.54 1.82 172.85 0.45L172.85 0.45L172.85 0.45Q169.17-0.91 166.71-3.46L166.71-3.46L166.71-3.46Q161.89-8.28 161.89-17.11L161.89-17.11L161.89-17.11Q161.89-30.85 169.35-39.22L169.35-39.22L169.35-39.22Q177.36-48.23 191.28-48.23L191.28-48.23L191.28-48.23Q199.93-48.23 204.20-44.59L204.20-44.59L204.20-44.59Q207.39-41.86 207.39-37.40L207.39-37.40L207.39-37.40Q207.39-21.38 179.72-21.38L179.72-21.38L179.72-21.38Q179.36-19.02 179.36-17.02L179.36-17.02L179.36-17.02Q179.36-12.83 181.23-11.24L181.23-11.24L181.23-11.24Q183.09-9.65 186.55-9.65L186.55-9.65L186.55-9.65Q190.01-9.65 193.69-11.24L193.69-11.24L193.69-11.24Q197.38-12.83 198.93-15.38ZM180.36-25.30L180.36-25.30L180.36-25.30Q186.82-25.30 190.55-29.30L190.55-29.30L190.55-29.30Q194.28-33.12 194.28-39.22L194.28-39.22L194.28-39.22Q194.28-41.31 193.51-42.45L193.51-42.45L193.51-42.45Q192.74-43.59 191.19-43.59L191.19-43.59L191.19-43.59Q189.64-43.59 188.32-43.00L188.32-43.00L188.32-43.00Q187.00-42.41 185.64-40.40L185.64-40.40L185.64-40.40Q182.27-35.85 180.36-25.30ZM230.69-9.10L230.69-9.10L230.69-9.10Q230.69-11.56 231.96-17.75L231.96-17.75L236.78-42.31L231.41-42.31L231.78-45.05L231.78-45.05Q242.70-48.32 253.25-56.33L253.25-56.33L257.62-56.33L255.44-46.41L262.54-46.41L261.72-42.31L254.71-42.31L250.07-17.75L250.07-17.75Q248.89-12.10 248.89-10.19L248.89-10.19L248.89-10.19Q248.89-5.82 252.71-4.91L252.71-4.91L252.71-4.91Q251.80-1.82 248.52 0L248.52 0L248.52 0Q245.25 1.82 240.60 1.82L240.60 1.82L240.60 1.82Q235.96 1.82 233.32-1.09L233.32-1.09L233.32-1.09Q230.69-4.00 230.69-9.10ZM281.55 1.82L281.55 1.82L281.55 1.82Q261.53 1.82 261.53-17.02L261.53-17.02L261.53-17.02Q261.53-30.39 268.91-39.04L268.91-39.04L268.91-39.04Q276.73-48.23 290.29-48.23L290.29-48.23L290.29-48.23Q300.12-48.23 305.12-43.68L305.12-43.68L305.12-43.68Q310.13-39.13 310.13-29.57L310.13-29.57L310.13-29.57Q310.13-15.01 302.30-6.55L302.30-6.55L302.30-6.55Q294.66 1.82 281.55 1.82ZM283.92-37.77L283.92-37.77L283.92-37.77Q282.83-35.31 281.96-31.62L281.96-31.62L281.96-31.62Q281.10-27.94 280.01-22.11L280.01-22.11L280.01-22.11Q278.92-16.29 278.92-9.10L278.92-9.10L278.92-9.10Q278.92-6.73 279.69-5.19L279.69-5.19L279.69-5.19Q280.46-3.64 282.56-3.64L282.56-3.64L282.56-3.64Q284.65-3.64 285.97-4.64L285.97-4.64L285.97-4.64Q287.29-5.64 288.29-8.01L288.29-8.01L288.29-8.01Q290.11-12.19 291.56-19.97L291.56-19.97L291.56-19.97Q293.02-27.75 293.16-31.12L293.16-31.12L293.16-31.12Q293.29-34.49 293.29-36.99L293.29-36.99L293.29-36.99Q293.29-39.49 292.57-41.13L292.57-41.13L292.57-41.13Q291.84-42.77 289.79-42.77L289.79-42.77L289.79-42.77Q287.74-42.77 286.38-41.50L286.38-41.50L286.38-41.50Q285.01-40.22 283.92-37.77ZM369.82-60.70L369.82-60.70L369.82-60.70Q392.12-60.70 392.12-44.95L392.12-44.95L392.12-44.95Q392.12-36.31 386.57-31.12L386.57-31.12L386.57-31.12Q381.11-25.93 371.55-25.93L371.55-25.93L371.55-25.93Q367.09-25.93 363.64-28.48L363.64-28.48L363.64-28.48Q362.00-29.57 360.91-31.03L360.91-31.03L360.91-31.03Q367.55-31.03 371.05-35.08L371.05-35.08L371.05-35.08Q374.56-39.13 374.56-47.05L374.56-47.05L374.56-47.05Q374.56-54.96 366.73-54.96L366.73-54.96L364.55-54.96L364.55-54.96Q364-54.96 363.55-54.87L363.55-54.87L353.08 0L333.33 0L344.53-59.60L344.53-59.60Q354.26-60.52 359.91-60.61L359.91-60.61L359.91-60.61Q365.55-60.70 369.82-60.70ZM421.06-25.57L421.06-25.57L421.06-25.57Q424.33-31.39 424.33-37.31L424.33-37.31L424.33-37.31Q424.33-41.22 421.51-41.22L421.51-41.22L421.51-41.22Q419.33-41.22 417.05-37.49L417.05-37.49L417.05-37.49Q414.69-33.76 413.96-28.94L413.96-28.94L409.23 0L390.39 1.82L399.67-46.41L414.69-48.23L413.05-39.04L413.05-39.04Q417.51-48.23 427.52-48.23L427.52-48.23L427.52-48.23Q432.80-48.23 435.66-45.50L435.66-45.50L435.66-45.50Q438.53-42.77 438.53-37.17L438.53-37.17L438.53-37.17Q438.53-31.58 434.84-28.03L434.84-28.03L434.84-28.03Q431.16-24.48 424.88-24.48L424.88-24.48L424.88-24.48Q422.15-24.48 421.06-25.57ZM459.82 1.82L459.82 1.82L459.82 1.82Q439.80 1.82 439.80-17.02L439.80-17.02L439.80-17.02Q439.80-30.39 447.17-39.04L447.17-39.04L447.17-39.04Q455.00-48.23 468.56-48.23L468.56-48.23L468.56-48.23Q478.39-48.23 483.39-43.68L483.39-43.68L483.39-43.68Q488.40-39.13 488.40-29.57L488.40-29.57L488.40-29.57Q488.40-15.01 480.57-6.55L480.57-6.55L480.57-6.55Q472.93 1.82 459.82 1.82ZM462.19-37.77L462.19-37.77L462.19-37.77Q461.10-35.31 460.23-31.62L460.23-31.62L460.23-31.62Q459.37-27.94 458.28-22.11L458.28-22.11L458.28-22.11Q457.18-16.29 457.18-9.10L457.18-9.10L457.18-9.10Q457.18-6.73 457.96-5.19L457.96-5.19L457.96-5.19Q458.73-3.64 460.82-3.64L460.82-3.64L460.82-3.64Q462.92-3.64 464.24-4.64L464.24-4.64L464.24-4.64Q465.56-5.64 466.56-8.01L466.56-8.01L466.56-8.01Q468.38-12.19 469.83-19.97L469.83-19.97L469.83-19.97Q471.29-27.75 471.43-31.12L471.43-31.12L471.43-31.12Q471.56-34.49 471.56-36.99L471.56-36.99L471.56-36.99Q471.56-39.49 470.83-41.13L470.83-41.13L470.83-41.13Q470.11-42.77 468.06-42.77L468.06-42.77L468.06-42.77Q466.01-42.77 464.65-41.50L464.65-41.50L464.65-41.50Q463.28-40.22 462.19-37.77ZM500.23-38.04L500.23-38.04L500.23-38.04Q503.32-42.41 508.01-45.32L508.01-45.32L508.01-45.32Q512.69-48.23 518.43-48.23L518.43-48.23L518.43-48.23Q524.16-48.23 526.89-46.41L526.89-46.41L544.73-48.23L538.54-13.29L538.54-13.29Q535.35 4.55 528.62 11.56L528.62 11.56L528.62 11.56Q522.16 18.20 509.60 18.20L509.60 18.20L509.60 18.20Q500.05 18.20 494.59 15.20L494.59 15.20L494.59 15.20Q489.13 12.19 489.13 7.19L489.13 7.19L489.13 7.19Q489.13 3.46 491.95 1.32L491.95 1.32L491.95 1.32Q494.77-0.82 499.14-0.82L499.14-0.82L499.14-0.82Q502.96-0.82 505.87 0.91L505.87 0.91L505.87 0.91Q507.60 1.82 508.42 3.09L508.42 3.09L508.42 3.09Q506.32 4.91 506.32 7.92L506.32 7.92L506.32 7.92Q506.32 11.83 509.96 11.83L509.96 11.83L509.96 11.83Q516.06 11.83 519.52-2.55L519.52-2.55L519.52-2.55Q520.52-6.46 521.34-10.37L521.34-10.37L521.34-10.37Q517.24-5.37 507.96-5.37L507.96-5.37L507.96-5.37Q501.50-5.37 497.77-8.46L497.77-8.46L497.77-8.46Q494.04-11.56 494.04-18.84L494.04-18.84L494.04-18.84Q494.04-23.39 495.59-28.53L495.59-28.53L495.59-28.53Q497.13-33.67 500.23-38.04ZM512.06-18.56L512.06-18.56L512.06-18.56Q512.06-12.38 515.24-12.38L515.24-12.38L515.24-12.38Q517.43-12.38 519.52-14.74L519.52-14.74L519.52-14.74Q521.16-16.65 521.79-19.47L521.79-19.47L526.44-42.86L526.44-42.86Q525.98-42.95 525.53-43.13L525.53-43.13L525.53-43.13Q524.62-43.50 523.43-43.50L523.43-43.50L523.43-43.50Q517.88-43.50 514.61-34.40L514.61-34.40L514.61-34.40Q512.06-27.30 512.06-18.56ZM576.76-25.57L576.76-25.57L576.76-25.57Q580.03-31.39 580.03-37.31L580.03-37.31L580.03-37.31Q580.03-41.22 577.21-41.22L577.21-41.22L577.21-41.22Q575.03-41.22 572.75-37.49L572.75-37.49L572.75-37.49Q570.39-33.76 569.66-28.94L569.66-28.94L564.93 0L546.09 1.82L555.37-46.41L570.39-48.23L568.75-39.04L568.75-39.04Q573.21-48.23 583.22-48.23L583.22-48.23L583.22-48.23Q588.50-48.23 591.36-45.50L591.36-45.50L591.36-45.50Q594.23-42.77 594.23-37.17L594.23-37.17L594.23-37.17Q594.23-31.58 590.54-28.03L590.54-28.03L590.54-28.03Q586.86-24.48 580.58-24.48L580.58-24.48L580.58-24.48Q577.85-24.48 576.76-25.57ZM599.64-2.73L599.64-2.73L599.64-2.73Q597.51-5.10 596.55-8.83L596.55-8.83L596.55-8.83Q595.60-12.56 595.60-18.66L595.60-18.66L595.60-18.66Q595.60-24.75 597.69-30.30L597.69-30.30L597.69-30.30Q599.78-35.85 603.60-39.86L603.60-39.86L603.60-39.86Q611.43-48.23 624.35-48.23L624.35-48.23L624.35-48.23Q628.99-48.23 632.36-46.68L632.36-46.68L647.92-48.23L641.19-12.74L641.19-12.74Q640.91-11.65 640.91-9.65L640.91-9.65L640.91-9.65Q640.91-7.64 642.14-6.37L642.14-6.37L642.14-6.37Q643.37-5.10 645.19-4.91L645.19-4.91L645.19-4.91Q644.28-1.82 640.96 0L640.96 0L640.96 0Q637.64 1.82 633.91 1.82L633.91 1.82L633.91 1.82Q630.18 1.82 627.67 0.41L627.67 0.41L627.67 0.41Q625.17-1.00 624.44-3.37L624.44-3.37L624.44-3.37Q622.99-1.09 619.89 0.36L619.89 0.36L619.89 0.36Q616.80 1.82 612.66 1.82L612.66 1.82L612.66 1.82Q608.52 1.82 605.15 0.73L605.15 0.73L605.15 0.73Q601.78-0.36 599.64-2.73ZM618.85-39.68L618.85-39.68L618.85-39.68Q617.80-38.04 616.89-35.26L616.89-35.26L616.89-35.26Q615.98-32.49 614.48-25.07L614.48-25.07L614.48-25.07Q612.98-17.65 612.98-12.38L612.98-12.38L612.98-12.38Q612.98-7.10 613.80-5.55L613.80-5.55L613.80-5.55Q614.61-4.00 616.07-4.00L616.07-4.00L616.07-4.00Q618.98-4.00 621.12-6.78L621.12-6.78L621.12-6.78Q623.26-9.55 624.08-14.47L624.08-14.47L628.90-41.13L628.90-41.13Q626.99-42.77 624.76-42.77L624.76-42.77L624.76-42.77Q622.53-42.77 621.21-42.04L621.21-42.04L621.21-42.04Q619.89-41.31 618.85-39.68ZM718.35 1.82L718.35 1.82L718.35 1.82Q707.34 1.82 707.34-6.73L707.34-6.73L707.34-6.73Q707.34-10.46 708.94-17.70L708.94-17.70L708.94-17.70Q710.53-24.93 711.07-27.85L711.07-27.85L711.07-27.85Q712.35-34.49 712.35-36.58L712.35-36.58L712.35-36.58Q712.35-41.22 708.89-41.22L708.89-41.22L708.89-41.22Q706.62-41.22 704.43-38.08L704.43-38.08L704.43-38.08Q702.25-34.94 701.25-28.66L701.25-28.66L695.60 0L677.86 1.82L682.77-22.93L682.77-22.93Q683.59-27.03 684.32-31.67L684.32-31.67L684.32-31.67Q685.05-36.31 685.05-37.04L685.05-37.04L685.05-37.04Q685.05-41.22 681.95-41.22L681.95-41.22L681.95-41.22Q679.86-41.22 677.59-38.13L677.59-38.13L677.59-38.13Q675.31-35.03 674.04-28.66L674.04-28.66L668.49 0L650.56 1.82L660.11-46.41L674.95-48.23L673.40-39.04L673.40-39.04Q675.77-43.95 680.13-46.09L680.13-46.09L680.13-46.09Q684.50-48.23 691.33-48.23L691.33-48.23L691.33-48.23Q695.24-48.23 697.79-46.32L697.79-46.32L697.79-46.32Q700.34-44.41 701.16-41.31L701.16-41.31L701.16-41.31Q702.70-44.50 706.66-46.36L706.66-46.36L706.66-46.36Q710.62-48.23 715.49-48.23L715.49-48.23L715.49-48.23Q720.36-48.23 722.77-47.18L722.77-47.18L722.77-47.18Q725.18-46.14 726.64-44.41L726.64-44.41L726.64-44.41Q729.09-41.22 729.09-35.40L729.09-35.40L729.09-35.40Q729.09-29.67 726.64-17.75L726.64-17.75L726.64-17.75Q725.36-11.92 725.36-9.78L725.36-9.78L725.36-9.78Q725.36-7.64 726.59-6.37L726.59-6.37L726.59-6.37Q727.82-5.10 729.64-4.91L729.64-4.91L729.64-4.91Q728.73-1.82 725.59 0L725.59 0L725.59 0Q722.45 1.82 718.35 1.82Z" fill="#444"></path></g></g><style>text {
  font-size: 64px;
  font-family: Arial Black;
  dominant-baseline: central;
  text-anchor: middle;
}</style></svg>